<?xml version="1.0" standalone="no"?>
<!DOCTYPE svg PUBLIC "-//W3C//DTD SVG 20010904//EN"
 "http://www.w3.org/TR/2001/REC-SVG-20010904/DTD/svg10.dtd">
<svg version="1.0" xmlns="http://www.w3.org/2000/svg"
 width="700.000000pt" height="700.000000pt" viewBox="0 0 700.000000 700.000000"
 preserveAspectRatio="xMidYMid meet">
<metadata>
Created by potrace 1.11, written by Peter Selinger 2001-2013
</metadata>
<g transform="translate(0.000000,700.000000) scale(0.100000,-0.100000)"
fill="#000000" stroke="none">
<path d="M3431 6983 c-76 -39 -93 -111 -49 -204 36 -75 39 -97 22 -138 -10
-23 -145 -167 -382 -406 -293 -295 -375 -384 -408 -440 -39 -68 -92 -187 -99
-227 -2 -11 -7 -28 -10 -38 -23 -74 -28 -261 -10 -365 26 -144 89 -285 177
-396 22 -29 195 -207 384 -395 400 -400 390 -385 326 -510 -33 -64 -35 -103
-7 -150 28 -47 67 -67 130 -66 66 1 106 26 129 84 17 41 12 77 -19 137 -30 60
-36 100 -20 137 7 16 168 185 357 375 190 190 367 375 393 410 82 111 132 228
159 372 20 101 13 281 -13 380 -23 87 -84 223 -129 289 -38 55 -151 178 -163
178 -15 0 -849 -838 -849 -852 0 -35 141 -89 210 -81 109 13 121 22 371 270
l236 234 11 -28 c51 -124 57 -281 18 -412 -42 -143 -84 -195 -410 -521 l-286
-285 -294 295 c-168 168 -309 319 -328 350 -145 229 -130 528 37 735 40 50
575 585 585 585 4 0 36 -28 72 -63 94 -89 190 -119 292 -90 46 14 126 59 126
72 0 3 -85 91 -189 196 -109 108 -196 205 -204 224 -18 43 -14 72 22 144 32
63 33 112 6 154 -38 57 -129 79 -194 46z"/>
<path d="M1540 4509 c-25 -4 -54 -10 -65 -13 -11 -3 -36 -9 -55 -14 -110 -27
-265 -119 -372 -221 l-68 -64 431 -429 431 -429 19 25 c69 88 81 218 28 314
-11 20 -122 139 -246 263 l-225 226 29 11 c98 40 242 53 352 32 79 -15 179
-58 246 -106 33 -23 186 -169 340 -323 l280 -281 -295 -294 c-172 -171 -318
-308 -350 -328 -166 -104 -357 -127 -542 -67 -138 46 -145 51 -494 399 l-291
289 46 48 c99 101 124 154 122 254 0 41 -8 75 -26 113 -46 97 -33 102 -248
-111 -106 -105 -205 -198 -222 -206 -37 -18 -64 -14 -140 20 -79 35 -137 34
-176 -3 -69 -66 -61 -189 14 -238 38 -25 76 -26 131 -5 125 51 123 50 164 34
25 -11 156 -134 397 -374 420 -417 469 -454 683 -517 95 -28 291 -41 367 -24
22 5 56 11 75 14 93 15 256 93 352 169 29 22 206 194 394 383 401 402 384 391
514 324 113 -58 211 -2 213 120 1 120 -96 174 -214 119 -74 -35 -107 -40 -145
-24 -16 7 -186 169 -379 361 -192 192 -380 371 -417 397 -99 71 -234 129 -353
152 -52 10 -258 13 -305 4z"/>
<path d="M5219 4516 c-2 -2 -26 -7 -52 -10 -108 -15 -249 -73 -362 -149 -32
-22 -212 -193 -400 -380 -187 -187 -355 -351 -373 -365 -42 -32 -94 -31 -160
2 -68 35 -108 39 -153 15 -47 -24 -71 -68 -71 -130 0 -59 26 -105 73 -129 44
-23 79 -18 159 19 67 32 106 32 150 1 16 -11 183 -174 372 -363 351 -349 419
-408 544 -463 68 -30 136 -54 173 -61 97 -18 138 -21 231 -18 125 5 152 9 250
41 137 46 247 113 362 222 l56 54 -425 425 c-349 349 -429 424 -442 416 -9 -6
-27 -32 -41 -58 -32 -64 -38 -154 -15 -227 16 -48 41 -76 253 -290 l235 -237
-29 -12 c-119 -48 -278 -55 -412 -16 -138 40 -172 67 -502 394 l-305 303 305
303 c282 280 311 306 386 345 45 23 112 49 149 57 66 16 194 21 245 10 14 -3
38 -8 53 -10 48 -9 143 -51 200 -89 29 -19 184 -166 343 -325 l290 -289 -59
-63 c-112 -120 -137 -226 -81 -349 15 -33 33 -65 41 -72 12 -9 48 23 206 180
218 218 239 231 314 206 26 -9 56 -22 67 -29 86 -55 194 6 201 114 9 125 -98
191 -215 131 -71 -36 -98 -41 -139 -24 -24 10 -158 136 -391 368 -195 194
-379 370 -407 390 -73 52 -179 102 -281 132 -68 20 -115 26 -213 29 -70 2
-128 2 -130 1z"/>
<path d="M3433 3340 c-76 -34 -96 -100 -55 -190 41 -94 44 -109 23 -154 -13
-28 -125 -148 -358 -381 -186 -187 -357 -365 -380 -395 -116 -156 -172 -315
-179 -515 -8 -248 74 -462 253 -655 l66 -71 424 425 c284 283 424 430 420 440
-3 8 -27 27 -53 42 -39 23 -60 28 -128 30 -125 3 -136 -4 -401 -267 -151 -149
-232 -224 -237 -216 -15 23 -39 113 -44 167 -3 30 -7 60 -9 66 -6 22 24 182
45 239 43 112 100 181 395 475 l285 285 293 -293 c326 -327 346 -351 389 -472
70 -199 46 -403 -67 -575 -19 -29 -166 -183 -325 -343 l-290 -290 -54 53 c-92
91 -167 124 -261 117 -44 -3 -120 -32 -152 -58 l-28 -23 196 -198 c235 -236
236 -239 190 -341 -37 -80 -43 -116 -25 -159 40 -94 193 -109 253 -24 32 45
32 90 -1 162 -34 72 -38 126 -14 160 9 13 173 181 365 374 354 356 403 413
467 548 102 217 108 495 14 720 -63 153 -110 209 -473 572 -186 187 -350 354
-362 370 -37 48 -37 85 -3 157 33 69 38 119 17 163 -30 61 -124 88 -196 55z"/>
</g>
</svg>
