<svg xmlns="http://www.w3.org/2000/svg" viewBox="0 0 141.74 141.74"><defs><style>.cls-1{fill:#1f2329;}</style></defs><title>Asset 2logo only</title><g id="Layer_2" data-name="Layer 2"><g id="Logo"><path class="cls-1" d="M86.17,46.87a18.23,18.23,0,0,0,0-25.78L85,19.88l-2.49,2.5L74.88,30l-7.26,7.26a5.79,5.79,0,0,0,8.2,0l8.55-8.55a12.89,12.89,0,0,1-2.62,14.42L70.87,54,60,43.09a12.89,12.89,0,0,1,0-18.22L70.87,14l1.8,1.8a5.79,5.79,0,0,0,8.19,0L73.8,8.72h0c-2.93-2.93.31-4,0-6.36-.41-3.15-5.45-3.15-5.86,0-.31,2.39,2.93,3.43,0,6.36h0L55.57,21.09a18.23,18.23,0,0,0,0,25.78l12.5,12.49c2.68,2.82-.44,3.87-.13,6.22.41,3.15,5.45,3.15,5.86,0,.31-2.35-2.81-3.4-.13-6.21Z"/><path class="cls-1" d="M46.87,55.57a18.23,18.23,0,0,0-25.78,0l-1.21,1.21,2.5,2.49L30,66.86l7.26,7.25a5.78,5.78,0,0,0,0-8.19l-8.55-8.55A12.89,12.89,0,0,1,43.09,60L54,70.87,43.09,81.75a12.89,12.89,0,0,1-18.22,0L14,70.87l1.8-1.8a5.81,5.81,0,0,0,0-8.2L8.72,67.94h0c-2.93,2.93-4-.31-6.36,0-3.15.41-3.15,5.45,0,5.86,2.39.31,3.43-2.93,6.36,0h0L21.09,86.17a18.23,18.23,0,0,0,25.78,0l12.49-12.5c2.82-2.68,3.87.44,6.22.13,3.15-.41,3.15-5.45,0-5.86-2.35-.31-3.4,2.81-6.21.13Z"/><path class="cls-1" d="M55.57,94.87a18.23,18.23,0,0,0,0,25.78l1.21,1.21,2.49-2.5,7.59-7.59,7.25-7.25a5.78,5.78,0,0,0-8.19,0l-8.55,8.54A12.88,12.88,0,0,1,60,98.65L70.87,87.77,81.75,98.65a12.89,12.89,0,0,1,0,18.22L70.87,127.75l-1.8-1.8a5.81,5.81,0,0,0-8.2,0L67.94,133h0c2.93,2.93-.31,4,0,6.36.41,3.14,5.45,3.14,5.86,0,.31-2.4-2.93-3.43,0-6.36h0l12.37-12.37a18.23,18.23,0,0,0,0-25.78l-12.5-12.5c-2.68-2.81.44-3.86.13-6.21-.41-3.15-5.45-3.15-5.86,0-.31,2.35,2.81,3.4.13,6.21Z"/><path class="cls-1" d="M94.87,86.17a18.23,18.23,0,0,0,25.78,0L121.86,85l-2.5-2.49-7.59-7.59-7.25-7.26a5.79,5.79,0,0,0,0,8.2l8.54,8.55a12.88,12.88,0,0,1-14.41-2.62L87.77,70.87,98.65,60a12.89,12.89,0,0,1,18.22,0l10.88,10.88-1.8,1.8a5.79,5.79,0,0,0,0,8.19L133,73.8h0c2.93-2.93,4,.31,6.36,0,3.14-.41,3.14-5.45,0-5.86-2.4-.31-3.43,2.93-6.36,0h0L120.65,55.57a18.23,18.23,0,0,0-25.78,0l-12.5,12.5c-2.81,2.68-3.86-.44-6.21-.13-3.15.41-3.15,5.45,0,5.86,2.35.31,3.4-2.81,6.21-.13Z"/></g></g></svg>