<svg width="905.33" height="612" version="1.1" viewBox="0 0 905.33 612" xml:space="preserve" xmlns="http://www.w3.org/2000/svg">
  
  
  
  <g transform="matrix(1.3333 0 0 -1.3333 0 612)">
    <g transform="scale(.1)">
      <g transform="matrix(1.0788 0 0 1.0788 -411.82 -176.79)">
        <path d="m2742.6 2199.3c0-57.122 8.6274-108.89 25.913-155.32 17.224-46.376 41.954-86.274 74.096-119.63 32.08-33.326 70.483-59.177 115.12-77.647 44.632-18.47 94.341-27.658 149.03-27.658 79.765 0 153.83 10.403 222.29 31.27 68.397 20.743 132.37 50.207 191.92 88.361l-598.03 633.73c-65.469-53.571-111.91-111.91-139.28-174.98-27.408-63.07-41.05-129.13-41.05-198.12m539.17 1851.3c115.4 0 217.15-16.974 305.23-50.892 88.081-33.887 162.46-78.55 223.13-133.93 60.735-55.284 108.33-119.29 142.84-191.89 34.541-72.57 55.938-146.98 64.285-223.13l-357.06-71.418c-5.9489-1.2147-11.026-2.1179-15.168-2.6785-4.1736-0.5918-8.6586-0.8721-13.393-0.8721-50.02 0-86.866 26.131-110.66 78.519-27.408 61.856-59.24 108.92-95.525 141.06-36.316 32.143-84.219 48.214-143.68 48.214-41.673 0-77.99-7.7865-108.92-23.235-30.959-15.48-56.872-35.724-77.678-60.703-20.837-24.948-36.565-54.163-47.28-87.489-10.745-33.295-16.071-67.836-16.071-103.56 0-30.959 2.6786-60.672 8.0046-89.202 5.3882-28.592 14.296-57.464 26.786-86.586 12.521-29.215 29.744-59.24 51.765-90.168 21.989-30.99 50.301-64.285 84.81-100.01l642.67-678.36c32.143 71.418 57.714 145.76 76.806 223.19 18.968 77.366 32.703 157.69 41.019 241.01 2.3671 33.233 13.393 59.489 33.015 78.519 19.653 19.03 45.567 28.592 77.678 28.592h349.89c0-173.79-23.204-335.94-69.611-486.5-46.407-150.56-112.5-288.32-198.15-413.28l546.27-574.83h-546.27c-27.408 0-51.796 1.4645-73.193 4.4539-21.46 3.0211-41.393 8.0668-59.831 15.199-18.47 7.1636-35.974 17.224-52.637 30.367-16.694 13.05-34.541 29.682-53.571 49.927l-112.47 117.86c-113.09-78.519-236.55-139.25-370.45-182.08-133.9-42.888-276.42-64.254-427.54-64.254-103.56 0-205.03 17.847-304.39 53.571-99.356 35.693-187.72 86.523-265.08 152.55-77.366 66.123-139.85 146.11-187.44 240.17-47.622 93.998-71.418 199.33-71.418 315.94 0 78.55 12.178 152.96 36.596 223.16 24.387 70.234 58.617 135.42 102.66 195.47 43.978 60.143 96.677 114.87 158 164.26 61.264 49.366 128.23 92.535 200.83 129.41-55.969 86.866-96.428 171.96-121.44 255.27-24.948 83.315-37.469 164.26-37.469 242.78 0 92.815 16.975 180.58 50.861 263.34 33.949 82.724 83.315 155.29 148.19 217.8 64.846 62.479 144.61 112.13 239.23 149.06 94.59 36.877 203.2 55.346 325.82 55.346"/>
        <path d="m2178.5 694.42h2524.3v382h-2524.3z"/>
      </g>
    </g>
  </g>
</svg>
